<svg width="72" height="72" fill="none" xmlns="http://www.w3.org/2000/svg"><path fill-rule="evenodd" clip-rule="evenodd" d="M36 23.9808c.0994.0127.2001.0192.3016.0192.5747 0 1.1408-.0069 1.6984-.0204V39H66.7111C69.6124 39 72 36.63 72 33.75v-7.5c0-2.88-2.3876-5.25-5.2889-5.25H54.5796C63.0488 17.7084 67 12.3266 67 8.0672 67 4.3466 64.0499.003 55.7306 0 44.9929 0 38.9117 7.6148 35.9997 14.5904 33.0874 7.6144 27.007 0 16.2725 0 7.9532 0 5 4.3442 5 8.0653 5 12.3253 8.9515 17.708 17.4214 21H5.2889C2.3876 21 0 23.37 0 26.25v7.5C0 36.63 2.3876 39 5.2889 39H34V23.9796A70.1702 70.1702 0 0035.6984 24c.1015 0 .2022-.0065.3016-.0192zm3.1749-4.4966c1.3845-4.9281 5.5595-15.0307 16.5557-15.0307 3.2233 0 6.6646.9464 6.6646 3.6108 0 1.789-1.5564 4.5929-5.9248 7.1-3.1496 1.8069-8.6201 3.9283-17.2955 4.3199zM34 44H6v22.8421C6 69.6716 8.3913 72 11.2973 72H34V44zm32 22.8421V44H38v28h22.7027C63.6087 72 66 69.6716 66 66.8421zM16.2725 4.4511c-3.2234 0-6.6677.9495-6.6677 3.6142 0 3.7893 6.8549 10.6943 23.2172 11.4213C31.4406 14.5549 27.2656 4.451 16.2725 4.451z" fill="#FDD6BA"/></svg>