<svg width="73" height="72" fill="none" xmlns="http://www.w3.org/2000/svg"><path fill-rule="evenodd" clip-rule="evenodd" d="M59.0481 13.1037c7.2596 7.362 11.7902 16.6411 12.7576 26.1226.9895 9.6571-1.8238 18.3781-7.912 24.5477C58.5999 69.1425 51.4112 72 43.3706 72c-1.2114 0-2.4406-.0675-3.6875-.198-9.3497-.981-18.4997-5.5755-25.7593-12.9376C-1.1902 43.5373-3.3645 20.8122 9.0781 8.1941c12.4337-12.6224 34.8516-10.4129 49.97 4.9096zM33.5284 40.0363c5.8308 1.62 11.2001 3.1365 16.1522 6.9706 3.8833 3.0075 6.6493 6.8295 9.4463 10.6944 1.2877 1.7793 2.5819 3.5676 3.9947 5.2898-1.6329-14.3326-8.7373-26.6447-23.0968-30.8702l-.6695-.1964c-6.2783-1.8409-12.0115-3.5219-17.2356-7.8766-3.3597-2.8026-5.8332-6.2812-8.3207-9.7797-1.2711-1.7876-2.5458-3.5804-3.9444-5.291 1.704 14.5575 8.9947 26.9776 23.6738 31.0591z" fill="#FDD6BA"/></svg>