<svg width="72" height="50" fill="none" xmlns="http://www.w3.org/2000/svg"><path fill-rule="evenodd" clip-rule="evenodd" d="M4.8461 0H9v4.1667H4.8461V0zM0 19.4444h4.1539v4.1667H0v-4.1667zM16.4335 4.2292h-3.3061V0h35.3341v35.3969c-2.164 1.8643-3.5618 4.5987-3.6514 7.6587H27.05c-.1653-5.6466-4.787-10.19-10.4483-10.19-5.6614 0-10.283 4.5432-10.4484 10.19H0V29.1199h11.7695c1.5036 0 2.7269-1.2284 2.7269-2.7385 0-1.5102-1.2233-2.7389-2.7269-2.7389H8.3446v-4.229H26.266c1.5036 0 2.7269-1.2287 2.7269-2.7389 0-1.5102-1.2233-2.7388-2.7269-2.7388H0v-4.229h16.6017c1.5036 0 2.7267-1.2286 2.7267-2.7388 0-1.459-1.3528-2.7388-2.8949-2.7388zM49.1538 43.75c0-3.4462 2.7952-6.25 6.2308-6.25 3.4356 0 6.2308 2.8038 6.2308 6.25S58.8202 50 55.3846 50c-3.4356 0-6.2308-2.8038-6.2308-6.25zm4.1306 2.1067h4.2005v-4.2134h-4.2005v4.2134zm-.669-40.9956h8.4468l9.5532 14.5833h-18V4.8611zm0 18.75v9.5643a10.5884 10.5884 0 012.6129-.3261c5.7193 0 10.3883 4.5506 10.5554 10.2063H72V23.6111H52.6154zm-36 13.8889c-3.4356 0-6.2308 2.8038-6.2308 6.25S13.1798 50 16.6154 50c3.4356 0 6.2308-2.8038 6.2308-6.25s-2.7952-6.25-6.2308-6.25zm2.1002 8.3567h-4.2005v-4.2134h4.2005v4.2134z" fill="#FDD6BA"/></svg>