<svg width="236" height="26" fill="none" xmlns="http://www.w3.org/2000/svg"><path fill-rule="evenodd" clip-rule="evenodd" d="M75.6512 23.3034c0 .5068-.2553.7603-.766.7603h-8.9969c-.2173 0-.3939-.0634-.5297-.1901-.1358-.1267-.2037-.3058-.2037-.5372 0-.1983.0461-.3581.1385-.4793.0924-.1212.2363-.2204.4319-.2976l.7009-.2148c.1738-.0551.3096-.1598.4074-.3141.0978-.1542.1467-.3746.1467-.6611v-9.5538c0-.1542-.038-.2837-.1141-.3884-.076-.1047-.2173-.2011-.4237-.2892l-.9454-.3141c-.2499-.1212-.4292-.2507-.5378-.3884-.1087-.1378-.163-.3058-.163-.5042 0-.1983.0679-.3608.2037-.4876l.0534-.0445c.1301-.097.2998-.1455.5089-.1455h1.4302l-.0112-.0966c-.0305-.1932-.1069-.3786-.2292-.5563-.163-.237-.3477-.5042-.5541-.8017-.2065-.2975-.3912-.6529-.5542-1.0661-.163-.4132-.2445-.9229-.2445-1.529 0-1.4435.489-2.5977 1.4669-3.4627.9779-.865 2.3688-1.2976 4.1725-1.2976 1.1626 0 2.127.1874 2.893.562.766.3747 1.3392.8733 1.7195 1.4959.3803.6226.5705 1.303.5705 2.0413 0 .8705-.2255 1.5234-.6764 1.9587-.451.4353-1.0296.6529-1.7358.6529-.7824 0-1.4126-.2534-1.8907-.7603-.4781-.507-.7171-1.1791-.7171-2.0166v-1.471c0-.3857-.0761-.6695-.2282-.8513-.1521-.1818-.3858-.2727-.7009-.2727-.402 0-.7062.1377-.9127.4132-.2064.2755-.3097.6722-.3097 1.1901 0 .529.1223 1.0248.3668 1.4876.2444.4628.546.8953.9045 1.2975.3586.4022.7172.7879 1.0758 1.157.3585.3692.66.7328.9045 1.091l.0697.1073c.132.2146.22.4281.264.6407l.0149.0867h2.4141c.2499 0 .4427.0523.5786.157.1358.1047.2037.2672.2037.4876 0 .3306-.1413.6005-.4238.8099-.2825.2094-.728.3141-1.3365.3141h-1.1572v10.2975c0 .3085.0462.5454.1386.7107.0923.1653.2417.2645.4482.2975l1.4017.2149c.2499.0331.4346.113.5541.2397.1195.1267.1793.3003.1793.5207zm-32.0921.3801c-.9779.4738-2.1188.7108-3.4227.7108-1.38 0-2.6159-.2921-3.708-.8761-1.092-.584-1.9531-1.4297-2.5833-2.5372-.6302-1.1074-.9453-2.4545-.9453-4.0413 0-1.5317.3287-2.9008.9861-4.1074.6573-1.2066 1.5728-2.1598 2.7463-2.8595 1.1735-.6997 2.5426-1.0496 4.1072-1.0496 1.3365 0 2.4639.1983 3.382.595.9182.3967 1.619.9339 2.1025 1.6116.4836.6777.7253 1.4353.7253 2.2727 0 .8816-.2526 1.573-.7579 2.0744-.5052.5014-1.1925.7521-2.0617.7521-.891 0-1.5674-.2562-2.0292-.7686s-.6927-1.2149-.6927-2.1075v-1.0578c0-.54-.0978-.9477-.2934-1.2232-.1956-.2754-.4726-.4132-.8312-.4132-.3586 0-.6818.146-.9698.438-.2879.2921-.5107.7301-.6682 1.3141-.1576.584-.2364 1.3058-.2364 2.1653 0 1.2341.182 2.27.546 3.1074.364.8375.8612 1.4656 1.4914 1.8843.6302.4187 1.3473.6281 2.1514.6281.8041 0 1.4777-.1184 2.021-.3554.5433-.2369.9616-.6363 1.255-1.1983.163-.1543.2907-.2534.383-.2975.0924-.0441.182-.0661.269-.0661.1086.011.1983.0633.2689.157.0706.0936.1005.2397.0896.438-.0869 1.0799-.4183 2.0331-.9942 2.8595s-1.3528 1.4766-2.3307 1.9504zm16.5676-.3306c-1.2224.6722-2.6431 1.0083-4.2621 1.0083-1.5755 0-2.9582-.3278-4.148-.9835-1.1898-.6556-2.1161-1.562-2.7789-2.719-.6628-1.157-.9942-2.4958-.9942-4.0165 0-1.4546.3477-2.7631 1.0431-3.9256.6954-1.1626 1.657-2.0854 2.8848-2.7686 1.2279-.6832 2.6404-1.0248 4.2377-1.0248 1.5864 0 2.9718.3306 4.1562.9917 1.1843.6612 2.1079 1.5758 2.7707 2.7438.6628 1.1681.9943 2.5179.9943 4.0496 0 1.4546-.345 2.7576-1.035 3.9091s-1.6462 2.0634-2.8686 2.7355zm-3.0234-.7107c-.3368.0661-.6655-.0827-.9861-.4463-.3205-.3636-.6247-.9752-.9127-1.8347-.2879-.8595-.5623-1.989-.8231-3.3884-.2499-1.3995-.3911-2.551-.4237-3.4546-.0326-.9036.0326-1.5867.1956-2.0496.1629-.4628.4129-.7327.7497-.8099.3368-.0661.6655.0827.9861.4463.3205.3636.6275.9752.9208 1.8347.2934.8595.5705 1.989.8313 3.3884.2607 1.3995.4047 2.5538.4319 3.4629.0272.909-.0435 1.595-.2119 2.0578-.1684.4628-.421.7273-.7579.7934zm29.1583 1.4215c.5107 0 .7661-.2535.7661-.7603 0-.2204-.0598-.394-.1793-.5207-.1195-.1267-.3042-.2066-.5542-.2397l-1.4016-.2149c-.2065-.033-.3559-.1322-.4483-.2975-.0923-.1653-.1385-.4022-.1385-.7107V11.0224h1.1572c.6085 0 1.054-.1047 1.3365-.3141.2825-.2094.4238-.4793.4238-.81 0-.2203-.0679-.3828-.2038-.4875-.1358-.1047-.3287-.157-.5786-.157h-2.414l-.0149-.0867c-.044-.2126-.132-.4261-.264-.6407l-.0697-.1074c-.2445-.358-.546-.7217-.9046-1.0909a37.0895 37.0895 0 01-1.0757-1.157c-.3586-.4022-.6601-.8347-.9046-1.2975-.2444-.4628-.3667-.9587-.3667-1.4876 0-.518.1032-.9146.3097-1.19.2064-.2756.5107-.4133.9127-.4133.3151 0 .5487.0909.7009.2727.1521.1818.2281.4656.2281.8513v1.471c0 .8375.2391 1.5097.7172 2.0166.4781.5069 1.1083.7603 1.8906.7603.7063 0 1.2849-.2176 1.7358-.6529.451-.4353.6764-1.0882.6764-1.9587 0-.7383-.1901-1.4187-.5704-2.0413s-.9535-1.1212-1.7195-1.4959c-.7661-.3746-1.7304-.562-2.893-.562-1.8038 0-3.1946.4326-4.1725 1.2976-.9779.865-1.4669 2.0193-1.4669 3.4628 0 .606.0815 1.1157.2445 1.5289.163.4132.3477.7686.5542 1.0661.2064.2975.3911.5648.5541.8017.1222.1777.1986.363.2292.5563l.0112.0966h-1.4302c-.2092 0-.3788.0485-.5089.1455l-.0534.0445c-.1358.1268-.2037.2893-.2037.4877 0 .1983.0543.3663.163.5041.1086.1377.2879.2672.5378.3884l.9453.3141c.2065.0881.3477.1845.4238.2892.0761.1047.1141.2342.1141.3884v9.5538c0 .2865-.0489.5069-.1467.6611-.0978.1543-.2336.259-.4075.3141l-.7008.2148c-.1956.0772-.3396.1764-.4319.2976-.0924.1212-.1386.281-.1386.4793 0 .2314.0679.4105.2038.5372.1358.1267.3124.1901.5297.1901h8.9968zm12.7619-.4794c-1.054.54-2.2709.81-3.6509.81-1.5212 0-2.8577-.3168-4.0095-.9505-1.1517-.6336-2.0509-1.5206-2.6974-2.6611-.6465-1.1405-.9698-2.4601-.9698-3.9587 0-1.5757.3124-2.9559.9372-4.1405s1.5294-2.1074 2.7137-2.7686c1.1844-.6611 2.6078-.9917 4.2703-.9917 1.4125 0 2.6295.2782 3.6509.8347 1.021.5565 1.806 1.3113 2.355 2.2645.549.9531.823 2.0137.823 3.1818 0 .5069-.136.9063-.407 1.1983l-.065.0648c-.268.2488-.637.3732-1.109.3732h-7.4505l.016.0763c.1977.9075.5354 1.6341 1.0131 2.1799.8149.9312 1.9015 1.3967 3.2597 1.3967.8693 0 1.638-.1983 2.3067-.595.668-.3967 1.116-.9477 1.344-1.6529.131-.1433.247-.2397.351-.2893.103-.0495.193-.0743.269-.0743.108 0 .201.044.277.1322.076.0881.114.2369.114.4463 0 1.0799-.294 2.0688-.88 2.9669-.587.8981-1.408 1.6171-2.4615 2.157zm-5.7791-8.0687a12.9735 12.9735 0 01-.0232-.7908c0-1.0358.076-1.8512.2282-2.4462.1521-.5951.3477-1.0166.5867-1.2645.2391-.2479.5053-.3719.7986-.3719.3803 0 .7362.3251 1.0676.9752.3314.6501.4971 1.73.4971 3.2397 0 .4628-.2064.6942-.6193.6942h-2.5336l-.0021-.0357zm21.3606 8.0687c-1.054.54-2.271.81-3.651.81-1.521 0-2.858-.3168-4.009-.9505-1.152-.6336-2.051-1.5206-2.698-2.6611-.646-1.1405-.97-2.4601-.97-3.9587 0-1.5757.313-2.9559.938-4.1405.624-1.1846 1.529-2.1074 2.713-2.7686 1.185-.6611 2.608-.9917 4.271-.9917 1.412 0 2.629.2782 3.651.8347 1.021.5565 1.806 1.3113 2.355 2.2645.548.9531.823 2.0137.823 3.1818 0 .5069-.136.9063-.408 1.1983l-.065.0648c-.267.2488-.637.3732-1.108.3732h-7.451l.016.0763c.198.9075.535 1.6341 1.013 2.1799.815.9312 1.902 1.3967 3.26 1.3967.869 0 1.638-.1983 2.306-.595.668-.3967 1.117-.9477 1.345-1.6529.13-.1433.247-.2397.35-.2893.103-.0495.193-.0743.269-.0743.109 0 .201.044.277.1322.076.0881.114.2369.114.4463 0 1.0799-.293 2.0688-.88 2.9669-.587.8981-1.407 1.6171-2.461 2.157zm-5.779-8.0687a12.5861 12.5861 0 01-.023-.7908c0-1.0358.076-1.8512.228-2.4462.152-.5951.348-1.0166.587-1.2645s.505-.3719.798-.3719c.381 0 .736.3251 1.068.9752.331.6501.497 1.73.497 3.2397 0 .4628-.206.6942-.619.6942h-2.534l-.002-.0357zm19.674 8.3415c-.136.1377-.334.2066-.595.2066h-8.15c-.239 0-.426-.0661-.562-.1984-.136-.1322-.204-.314-.204-.5454 0-.1763.041-.3223.123-.438.081-.1157.192-.2232.334-.3223l.375-.1488c.141-.0661.239-.1708.293-.3141.054-.1432.081-.3801.081-.7107v-8.3967c0-.2645-.029-.4545-.089-.5702-.06-.1157-.16-.2067-.302-.2728l-.423-.0496c-.153-.0881-.264-.1818-.335-.281-.07-.0991-.106-.2258-.106-.3801 0-.1763.055-.3334.163-.4711.109-.1377.294-.2562.555-.3554l4.628-1.3388c.272-.1102.5-.1873.685-.2314.185-.044.342-.0661.473-.0661.184 0 .323.066.415.1983l.03.048c.076.1382.129.3591.158.6628l.124 2.5684.028-.0948c.055-.1789.116-.3506.182-.515.396-.9862.921-1.719 1.573-2.1983.652-.4793 1.363-.719 2.135-.719.934 0 1.651.314 2.151.9421.5.6281.75 1.5813.75 2.8595 0 1.2673-.261 2.1984-.782 2.7934-.522.5951-1.196.8926-2.021.8926-.805 0-1.399-.2039-1.785-.6116-.386-.4077-.59-.9862-.611-1.7355l-.017-.6612c-.011-.2534-.059-.4518-.146-.595-.087-.1433-.229-.2149-.424-.2149-.196 0-.367.1019-.513.3058-.147.2039-.259.5151-.335.9339-.076.4187-.114.9531-.114 1.6033v5.8182c0 .3085.049.5537.147.7355.098.1818.25.2948.456.3388l1.223.248c.228.033.391.1184.489.2562.097.1377.146.3003.146.4876 0 .2204-.068.3994-.203.5372zm13.03.5041c1.619 0 3.04-.3361 4.263-1.0083 1.222-.6721 2.178-1.584 2.868-2.7355s1.035-2.4545 1.035-3.9091c0-1.5317-.331-2.8815-.994-4.0496-.663-1.168-1.587-2.0826-2.771-2.7438-1.184-.6611-2.57-.9917-4.156-.9917-1.597 0-3.01.3416-4.238 1.0248-1.228.6832-2.189 1.606-2.885 2.7686-.695 1.1625-1.043 2.471-1.043 3.9256 0 1.5207.332 2.8595.995 4.0165.662 1.157 1.589 2.0634 2.778 2.719 1.19.6557 2.573.9835 4.148.9835zm.253-2.1653c.321.3636.649.5124.986.4463.337-.0661.59-.3306.758-.7934.168-.4628.239-1.1488.212-2.0578-.027-.9091-.171-2.0634-.432-3.4629-.261-1.3994-.538-2.5289-.831-3.3884-.294-.8595-.601-1.4711-.921-1.8347-.321-.3636-.649-.5124-.986-.4463-.337.0772-.587.3471-.75.8099-.163.4629-.228 1.146-.195 2.0496.032.9036.173 2.0551.423 3.4546.261 1.3994.535 2.5289.823 3.3884.288.8595.593 1.4711.913 1.8347zm20.838 2.1984c.913 0 1.662-.1681 2.249-.5042.587-.3361 1.024-.7355 1.312-1.1983.288-.4628.432-.8871.432-1.2727 0-.1653-.035-.3031-.106-.4133-.07-.1102-.166-.1653-.285-.1653a.3241.3241 0 00-.147.0331.3316.3316 0 00-.114.0992c-.054.1983-.138.3361-.252.4132-.115.0771-.237.1157-.367.1157-.185 0-.323-.0634-.416-.1901-.092-.1267-.138-.2948-.138-.5041v-7.3058c0-1.4545-.492-2.5813-1.475-3.3802-.984-.7989-2.524-1.1983-4.621-1.1983-1.63 0-2.991.2038-4.083.6116-1.092.4077-1.912.9283-2.461 1.5619-.549.6336-.823 1.281-.823 1.9422 0 .7052.204 1.2424.611 1.6116.408.3691.997.5537 1.769.5537.945 0 1.689-.2562 2.232-.7686.544-.5124.815-1.1763.815-1.9918v-1.2562c0-.3085.095-.5482.286-.719.19-.1708.426-.2562.709-.2562.304 0 .546.113.725.3389.179.2259.269.5317.269.9173l-.001 4.8182-.086-.0188c-.262-.0507-.566-.0796-.911-.0868l-.176-.0018c-2.336 0-4.077.3967-5.223 1.1901-1.147.7934-1.72 1.9008-1.72 3.3223 0 1.0799.394 1.9669 1.182 2.6611.788.6943 1.833 1.0414 3.137 1.0414.978 0 1.891-.2011 2.738-.6033.636-.3017 1.153-.6979 1.55-1.1886l.022-.0286.024.0739c.126.3573.355.6774.689.9603l.103.0838c.603.4683 1.453.7025 2.551.7025zm-5.615-3.1157c.266.3581.617.5371 1.051.5371l.094-.0032c.185-.0129.364-.0645.537-.1549l.053-.0301V17.386l-.081-.0248c-.184-.0496-.402-.0744-.652-.0744-.423 0-.763.1984-1.018.5951-.256.3967-.383.9807-.383 1.752 0 .7383.133 1.2865.399 1.6447zm17.105 3.1652c1.935 0 3.418-.4462 4.45-1.3388 1.032-.8926 1.548-2.1102 1.548-3.6529 0-.9366-.173-1.7576-.521-2.4628-.348-.7052-.956-1.3306-1.826-1.876-.869-.5455-2.091-1.0606-3.667-1.5455-.587-.1873-1.04-.3774-1.361-.5702-.32-.1929-.54-.3995-.66-.6199a1.4734 1.4734 0 01-.179-.7107c0-.3747.136-.6777.407-.9091.272-.2314.674-.3471 1.206-.3471.739 0 1.437.2479 2.095.7438.657.4959 1.383 1.3443 2.176 2.5454.206.2535.413.4381.619.5538.206.1157.402.1515.587.1074.228-.0661.369-.2176.424-.4545.054-.237.043-.5758-.033-1.0166l-.424-3.0413c-.043-.3196-.125-.5455-.244-.6777-.12-.1322-.277-.1983-.473-.1983-.174 0-.391.0606-.652.1818-.261.1212-.519.2452-.774.3719s-.448.19-.579.19c-.119 0-.296-.066-.529-.1983-.234-.1322-.563-.2644-.986-.3967-.424-.1322-.973-.1983-1.647-.1983-1.119 0-2.127.2038-3.023.6116-.896.4077-1.603.9889-2.119 1.7438-.516.7548-.774 1.6556-.774 2.7024 0 .9257.193 1.7356.579 2.4298.385.6942.975 1.2892 1.768 1.7851s1.793.8981 2.999 1.2066c.782.2094 1.383.4215 1.801.6364.418.2149.706.449.864.7025.157.2534.236.5344.236.8429 0 .4078-.136.7438-.407 1.0083-.272.2645-.685.3967-1.239.3967-.522 0-1.019-.1129-1.491-.3388-.473-.2259-.959-.6144-1.459-1.1653-.5-.551-1.06-1.3058-1.679-2.2645-.185-.2534-.394-.4297-.627-.5289-.234-.0992-.47-.0937-.709.0165-.229.0882-.375.2755-.44.562-.066.2865-.049.6391.048 1.0578l.506 3.2893c.076.3306.184.551.326.6612.141.1102.293.1652.456.1652.185 0 .41-.0606.676-.1818l.799-.3636c.266-.1212.481-.1818.644-.1818.163 0 .377.0606.644.1818.266.1212.614.2424 1.043.3636.429.1212.97.1818 1.621.1818zm15.452-.6198c-.717.3802-1.565.5703-2.543.5703-1.652 0-2.893-.4022-3.724-1.2067-.831-.8044-1.247-2.0716-1.247-3.8016v-7.4711c0-.2314-.022-.4077-.065-.5289-.044-.1212-.152-.2204-.326-.2975l-.766-.248c-.185-.0881-.304-.1956-.359-.3223-.054-.1267-.081-.2837-.081-.471 0-.2315.081-.4215.244-.5703.163-.1487.364-.2231.603-.2231h.799c.098 0 .201-.0386.31-.1157.108-.0772.255-.2314.44-.4628l3.015-2.529c.217-.2644.434-.4655.652-.6033.217-.1377.434-.2066.652-.2066.25 0 .445.0771.586.2314l.045.0547c.112.1545.167.3787.167.6726v2.9587h3.407c.239 0 .424.0523.554.157.13.1047.196.2672.196.4876 0 .3085-.136.573-.408.7934l-.061.0455c-.273.19-.688.2851-1.243.2851h-2.445v7.5372c0 .8264.139 1.438.416 1.8347.277.3967.682.595 1.214.595.228 0 .44-.0496.636-.1488a2.045 2.045 0 00.53-.3884c.157-.1598.307-.3388.448-.5372.141-.1983.277-.3967.407-.595.109-.0441.204-.0248.286.0578.081.0827.116.2507.105.5042-.076.8925-.323 1.6776-.741 2.3553-.418.6777-.986 1.2066-1.703 1.5868zm10.675.5703c1.38 0 2.597-.27 3.651-.81 1.054-.5399 1.875-1.2589 2.461-2.157.587-.8981.88-1.887.88-2.9669 0-.2094-.038-.3582-.114-.4463-.076-.0882-.168-.1322-.277-.1322-.076 0-.165.0248-.269.0743-.103.0496-.22.146-.35.2893-.228.7052-.677 1.2562-1.345 1.6529-.668.3967-1.437.595-2.306.595-1.358 0-2.445-.4655-3.26-1.3967-.477-.5458-.815-1.2724-1.013-2.1799l-.016-.0763h7.451c.471 0 .841-.1244 1.109-.3732l.064-.0648c.272-.292.408-.6914.408-1.1983 0-1.1681-.274-2.2287-.823-3.1818-.549-.9532-1.334-1.708-2.355-2.2645-1.022-.5565-2.239-.8347-3.651-.8347-1.663 0-3.086.3306-4.27.9917-1.185.6612-2.089 1.584-2.714 2.7686s-.937 2.5648-.937 4.1405c0 1.4986.323 2.8182.969 3.9587.647 1.1405 1.546 2.0275 2.698 2.6611 1.152.6337 2.488.9505 4.009.9505zm-2.151-9.6695c0 .2736.008.5372.023.7908l.002.0357h2.534c.413 0 .619-.2314.619-.6942 0-1.5097-.166-2.5896-.497-3.2397-.331-.6501-.687-.9752-1.068-.9752-.293 0-.559.124-.798.3719s-.435.6694-.587 1.2645c-.152.595-.228 1.4104-.228 2.4462zm19.102 9.3389c.261 0 .459-.0689.595-.2066.136-.1378.204-.3168.204-.5372 0-.1873-.049-.3499-.147-.4876-.098-.1378-.261-.2232-.489-.2562l-1.223-.248c-.206-.044-.358-.157-.456-.3388-.098-.1818-.147-.427-.147-.7355v-5.8182c0-.6502.038-1.1846.115-1.6033.076-.4188.187-.73.334-.9339.146-.2039.317-.3058.513-.3058s.337.0716.424.2149c.087.1432.136.3416.147.595l.016.6612c.022.7493.225 1.3278.611 1.7355.386.4077.981.6116 1.785.6116.826 0 1.499-.2975 2.021-.8926.521-.595.782-1.5261.782-2.7934 0-1.2782-.25-2.2314-.75-2.8595-.499-.628-1.217-.9421-2.151-.9421-.772 0-1.483.2397-2.135.719-.652.4793-1.176 1.2121-1.573 2.1983a6.5431 6.5431 0 00-.182.515l-.028.0952-.124-2.5688c-.029-.3037-.082-.5246-.158-.6628l-.03-.048c-.092-.1322-.23-.1983-.415-.1983-.131 0-.288.022-.473.066-.185.0442-.413.1213-.684.2315l-4.629 1.3388c-.261.0992-.446.2177-.554.3554-.109.1377-.163.2948-.163.4711 0 .1543.035.281.106.3801.07.0992.182.1929.334.281l.423.0496c.142.0661.242.1571.302.2728s.09.3057.09.5702v8.3967c0 .3306-.028.5675-.082.7107-.054.1433-.152.248-.293.3141l-.375.1488c-.141.0991-.253.2066-.334.3223-.082.1157-.122.2617-.122.438 0 .2314.067.4132.203.5454.136.1323.324.1984.563.1984h8.149zm17.162-.9587c-1.032.8926-2.515 1.3388-4.449 1.3388-.652 0-1.193-.0606-1.622-.1818-.429-.1212-.777-.2424-1.043-.3636-.266-.1212-.481-.1818-.644-.1818-.163 0-.377.0606-.644.1818l-.798.3636c-.266.1212-.492.1818-.677.1818-.163 0-.315-.055-.456-.1652-.141-.1102-.25-.3306-.326-.6612l-.505-3.2893c-.098-.4187-.114-.7713-.049-1.0578.065-.2865.212-.4738.44-.562.239-.1102.475-.1157.709-.0165.234.0992.443.2755.627.5289.62.9587 1.179 1.7135 1.679 2.2645.5.5509.986.9394 1.459 1.1653.473.2259.97.3388 1.491.3388.554 0 .967-.1322 1.239-.3967.272-.2645.407-.6005.407-1.0083 0-.3085-.078-.5895-.236-.8429-.157-.2535-.445-.4876-.864-.7025-.418-.2149-1.018-.427-1.801-.6364-1.206-.3085-2.205-.7107-2.999-1.2066-.793-.4959-1.382-1.0909-1.768-1.7851-.386-.6942-.579-1.5041-.579-2.4298 0-1.0468.258-1.9476.775-2.7024.516-.7549 1.222-1.3361 2.118-1.7438.897-.4078 1.905-.6116 3.024-.6116.673 0 1.222.0661 1.646.1983.424.1323.752.2645.986.3967.234.1323.41.1984.53.1984.13 0 .323-.0634.578-.1901.256-.1267.514-.2507.774-.372.261-.1211.479-.1817.652-.1817.196 0 .354.066.473.1983.12.1323.201.3582.245.6777l.423 3.0413c.076.4408.087.7796.033 1.0166-.054.2369-.196.3884-.424.4545-.185.0441-.38.0083-.587-.1074-.206-.1157-.412-.3003-.619-.5538-.793-1.2011-1.518-2.0495-2.176-2.5454-.657-.4959-1.355-.7438-2.094-.7438-.533 0-.935.1157-1.206.3471-.272.2314-.408.5344-.408.9091 0 .2534.06.4903.18.7107.119.2204.339.427.66.6199.32.1928.774.3829 1.361.5702 1.575.4849 2.798 1 3.667 1.5455.869.5454 1.478 1.1708 1.825 1.876.348.7052.522 1.5262.522 2.4628 0 1.5427-.516 2.7603-1.549 3.6529z" fill="#fff"/><path fill-rule="evenodd" clip-rule="evenodd" d="M14.3891 4.4465C10.8747.935 5.6653.4295 2.7764 3.3215-.114 6.212.3914 11.4216 3.8999 14.9347c.936.936 2.0144 1.6515 3.1529 2.1645.3735-2.1705 1.4445-4.257 3.0704-5.9701-.5385-.192-1.0905-.354-1.6664-.5115-3.411-.936-5.106-3.7815-5.502-7.1176.3276.3939.6258.807.9231 1.2189.5769.7992 1.1504 1.5937 1.9284 2.2342 1.2103.9965 2.5387 1.3812 3.992 1.802l.169.049c.6884.1995 1.2869.495 1.8359.84 1.443-1.0545 3.0704-1.7565 4.7504-2.046-.5115-1.1385-1.2285-2.2156-2.1645-3.1516zM8.4463 17.9332c.2235-2.1735 1.2764-4.299 2.9639-5.9866 3.5144-3.5115 8.7238-4.0185 11.6127-1.125 2.8905 2.8906 2.3865 8.1001-1.1264 11.6132-1.6875 1.6875-3.813 2.7405-5.9864 2.9655a8.7582 8.7582 0 01-.8565.0435c-1.8689 0-3.5384-.6555-4.7684-1.8855-1.416-1.4145-2.07-3.4125-1.839-5.6251zm5.1403 1.7836c1.152-.8791 2.3985-1.2271 3.7545-1.5976 3.4109-.936 5.1043-3.7815 5.5018-7.1176-.3247.3917-.6207.802-.9159 1.2111-.5786.802-1.1538 1.5993-1.9355 2.242-1.214.9981-2.5455 1.3835-4.0053 1.8059l-.1556.0451c-3.3374.969-4.9874 3.7906-5.3684 7.0741.3288-.395.63-.8051.9296-1.213.6503-.8856 1.2932-1.761 2.1948-2.45z" fill="#0E8784"/></svg>