<svg width="237" height="27" fill="none" xmlns="http://www.w3.org/2000/svg"><path fill-rule="evenodd" clip-rule="evenodd" d="M75.7514 23.8595c0 .5069-.2553.7603-.766.7603h-8.9969c-.2173 0-.3939-.0633-.5297-.19-.1358-.1268-.2037-.3058-.2037-.5372 0-.1984.0462-.3582.1385-.4794.0924-.1212.2363-.2204.4319-.2975l.7009-.2149c.1738-.0551.3096-.1598.4074-.314.0978-.1543.1467-.3747.1467-.6612v-9.5537c0-.1543-.038-.2837-.1141-.3884-.076-.1047-.2173-.2011-.4237-.2893l-.9453-.314c-.25-.1212-.4292-.2507-.5379-.3885-.1087-.1377-.163-.3057-.163-.5041 0-.1983.0679-.3609.2037-.4876l.0534-.0445c.1301-.097.2998-.1456.5089-.1456h1.4303l-.0113-.0966c-.0305-.1932-.1069-.3786-.2292-.5563-.1629-.2369-.3477-.5041-.5541-.8016-.2065-.2975-.3912-.653-.5542-1.0661-.1629-.4133-.2444-.923-.2444-1.529 0-1.4435.4889-2.5978 1.4668-3.4628C67.9444 1.4325 69.3352 1 71.1389 1c1.1626 0 2.127.1873 2.893.562.7661.3746 1.3392.8733 1.7195 1.4959.3803.6225.5705 1.303.5705 2.0413 0 .8705-.2255 1.5234-.6764 1.9587-.4509.4352-1.0295.6528-1.7358.6528-.7824 0-1.4126-.2534-1.8907-.7603-.4781-.5069-.7171-1.179-.7171-2.0165v-1.471c0-.3858-.0761-.6695-.2282-.8513-.1521-.1819-.3857-.2728-.7008-.2728-.4021 0-.7063.1378-.9128.4133-.2064.2755-.3096.6721-.3096 1.19 0 .529.1222 1.0248.3667 1.4877.2445.4628.546.8953.9046 1.2975.3585.4022.7171.7879 1.0757 1.157.3585.3691.6601.7328.9045 1.091l.0697.1073c.132.2145.2201.428.2641.6406l.0149.0867h2.414c.2499 0 .4428.0524.5786.157.1358.1047.2037.2673.2037.4876 0 .3306-.1412.6006-.4238.81-.2825.2093-.728.314-1.3364.314h-1.1573V21.876c0 .3086.0462.5455.1386.7108.0923.1653.2417.2644.4482.2975l1.4017.2149c.2499.033.4346.1129.5541.2396.1196.1268.1793.3003.1793.5207zm-32.0921.3802c-.9779.4738-2.1188.7107-3.4227.7107-1.3799 0-2.6159-.292-3.7079-.876-1.092-.584-1.9532-1.4298-2.5834-2.5372C33.3151 20.4298 33 19.0826 33 17.4959c0-1.5317.3287-2.9009.9861-4.1075.6573-1.2066 1.5728-2.1597 2.7463-2.8595 1.1735-.6997 2.5426-1.0496 4.1073-1.0496 1.3365 0 2.4638.1984 3.3819.5951.9182.3967 1.619.9339 2.1026 1.6116.4835.6776.7253 1.4352.7253 2.2727 0 .8815-.2527 1.573-.7579 2.0744-.5053.5013-1.1926.752-2.0618.752-.891 0-1.5674-.2562-2.0292-.7686s-.6927-1.2148-.6927-2.1074v-1.0579c0-.5399-.0978-.9476-.2934-1.2231-.1956-.2755-.4726-.4132-.8312-.4132-.3586 0-.6818.146-.9698.438-.2879.292-.5107.73-.6682 1.314-.1576.5841-.2363 1.3058-.2363 2.1653 0 1.2342.182 2.27.546 3.1075.364.8374.8611 1.4655 1.4913 1.8843.6302.4187 1.3473.6281 2.1514.6281.8041 0 1.4778-.1185 2.021-.3554.5433-.2369.9617-.6364 1.255-1.1984.163-.1542.2907-.2534.3831-.2975.0923-.0441.182-.0661.2689-.0661.1087.011.1983.0634.2689.157.0706.0937.1005.2397.0897.4381-.087 1.0798-.4184 2.033-.9943 2.8595-.5758.8264-1.3527 1.4765-2.3307 1.9504zm16.5676-.3306c-1.2224.6722-2.6431 1.0083-4.2621 1.0083-1.5755 0-2.9582-.3279-4.148-.9835-1.1898-.6557-2.1161-1.562-2.7789-2.719-.6628-1.157-.9942-2.4959-.9942-4.0166 0-1.4545.3477-2.763 1.0431-3.9256.6954-1.1625 1.657-2.0854 2.8849-2.7686 1.2278-.6832 2.6403-1.0248 4.2376-1.0248 1.5864 0 2.9718.3306 4.1562.9918 1.1843.6611 2.1079 1.5757 2.7707 2.7438.6629 1.168.9943 2.5179.9943 4.0496 0 1.4545-.345 2.7575-1.035 3.9091-.69 1.1515-1.6462 2.0633-2.8686 2.7355zm-3.0234-.7108c-.3368.0662-.6655-.0826-.986-.4462-.3206-.3637-.6248-.9752-.9128-1.8347-.2879-.8595-.5623-1.989-.823-3.3885-.25-1.3994-.3912-2.5509-.4238-3.4545-.0326-.9036.0326-1.5868.1956-2.0496.163-.4628.4129-.7328.7497-.8099.3369-.0661.6655.0826.9861.4463.3205.3636.6275.9752.9209 1.8347.2933.8595.5704 1.9889.8312 3.3884.2608 1.3994.4047 2.5537.4319 3.4628.0272.9091-.0435 1.595-.2119 2.0579-.1684.4628-.421.7272-.7579.7933zm29.1584 1.4215c.5107 0 .766-.2534.766-.7603 0-.2204-.0598-.3939-.1793-.5207-.1195-.1267-.3042-.2066-.5541-.2396l-1.4017-.2149c-.2065-.0331-.3559-.1322-.4482-.2975-.0924-.1653-.1386-.4022-.1386-.7108V11.5785h1.1572c.6085 0 1.054-.1047 1.3365-.314.2825-.2094.4238-.4794.4238-.81 0-.2203-.0679-.3829-.2037-.4876-.1359-.1046-.3287-.157-.5787-.157h-2.414l-.0149-.0867c-.044-.2125-.132-.426-.264-.6406l-.0697-.1074c-.2445-.3581-.546-.7218-.9046-1.0909a37.0782 37.0782 0 01-1.0757-1.157c-.3585-.4022-.6601-.8347-.9045-1.2975-.2445-.4629-.3668-.9587-.3668-1.4877 0-.5179.1033-.9145.3097-1.19.2065-.2755.5107-.4133.9127-.4133.3151 0 .5488.091.7009.2728s.2282.4655.2282.8512v1.471c0 .8376.239 1.5097.7171 2.0166.4781.5069 1.1083.7603 1.8907.7603.7062 0 1.2848-.2176 1.7358-.6528.4509-.4353.6764-1.0882.6764-1.9587 0-.7383-.1902-1.4188-.5705-2.0413-.3803-.6226-.9535-1.1213-1.7195-1.496C84.6424 1.1874 83.678 1 82.5154 1c-1.8037 0-3.1946.4325-4.1725 1.2975-.9779.865-1.4669 2.0193-1.4669 3.4628 0 .606.0815 1.1157.2445 1.529.163.4132.3477.7686.5542 1.066.2064.2976.3911.5648.5541.8017.1223.1777.1987.3631.2292.5563l.0112.0966H77.039c-.2091 0-.3788.0485-.5089.1456L76.4767 10c-.1358.1267-.2037.2893-.2037.4876 0 .1984.0543.3664.163.5041.1086.1378.2879.2673.5378.3885l.9454.314c.2064.0882.3477.1846.4237.2893.0761.1047.1141.2341.1141.3884v9.5537c0 .2865-.0489.5069-.1467.6612-.0978.1542-.2336.2589-.4074.314l-.7009.2149c-.1956.0771-.3395.1763-.4319.2975-.0924.1212-.1385.281-.1385.4794 0 .2314.0679.4104.2037.5372.1358.1267.3124.19.5297.19h8.9969zm12.7618-.4793c-1.054.5399-2.2709.8099-3.6509.8099-1.5212 0-2.8577-.3168-4.0095-.9504-1.1517-.6336-2.0509-1.5207-2.6974-2.6612-.6465-1.1405-.9698-2.46-.9698-3.9586 0-1.5758.3124-2.956.9372-4.1405.6248-1.1846 1.5294-2.1075 2.7137-2.7686 1.1844-.6612 2.6078-.9918 4.2703-.9918 1.4126 0 2.6295.2783 3.6509.8347 1.0218.5565 1.8068 1.3113 2.3548 2.2645.549.9532.823 2.0138.823 3.1818 0 .5069-.135.9064-.407 1.1984l-.065.0648c-.268.2488-.637.3732-1.109.3732h-7.4503l.016.0762c.1977.9075.5354 1.6342 1.0131 2.18.8149.9311 1.9015 1.3967 3.2597 1.3967.8693 0 1.6381-.1984 2.3065-.5951.668-.3967 1.116-.9476 1.344-1.6528.131-.1433.248-.2397.351-.2893.103-.0496.193-.0744.269-.0744.108 0 .201.0441.277.1322.076.0882.114.237.114.4463 0 1.0799-.293 2.0689-.88 2.967-.587.898-1.407 1.617-2.4613 2.157zm-5.779-8.0688a12.8882 12.8882 0 01-.0233-.7907c0-1.0358.0761-1.8512.2282-2.4463.1521-.595.3477-1.0165.5867-1.2645.2391-.2479.5053-.3719.7987-.3719.3803 0 .7361.3251 1.0675.9753.3314.6501.4971 1.73.4971 3.2396 0 .4628-.2064.6942-.6193.6942h-2.5336l-.002-.0357zm21.3603 8.0688c-1.054.5399-2.271.8099-3.651.8099-1.521 0-2.857-.3168-4.009-.9504-1.152-.6336-2.051-1.5207-2.698-2.6612-.646-1.1405-.969-2.46-.969-3.9586 0-1.5758.312-2.956.937-4.1405.625-1.1846 1.529-2.1075 2.714-2.7686 1.184-.6612 2.607-.9918 4.27-.9918 1.412 0 2.629.2783 3.651.8347 1.021.5565 1.806 1.3113 2.355 2.2645.549.9532.823 2.0138.823 3.1818 0 .5069-.136.9064-.407 1.1984l-.065.0648c-.268.2488-.638.3732-1.109.3732h-7.451l.016.0762c.198.9075.536 1.6342 1.013 2.18.815.9311 1.902 1.3967 3.26 1.3967.869 0 1.638-.1984 2.306-.5951.669-.3967 1.117-.9476 1.345-1.6528.13-.1433.247-.2397.35-.2893.104-.0496.193-.0744.269-.0744.109 0 .201.0441.277.1322.076.0882.114.237.114.4463 0 1.0799-.293 2.0689-.88 2.967-.586.898-1.407 1.617-2.461 2.157zm-5.779-8.0688a13.39 13.39 0 01-.023-.7907c0-1.0358.076-1.8512.228-2.4463.152-.595.348-1.0165.587-1.2645.239-.2479.505-.3719.799-.3719.38 0 .736.3251 1.067.9753.331.6501.497 1.73.497 3.2396 0 .4628-.206.6942-.619.6942h-2.534l-.002-.0357zm19.674 8.3415c-.136.1378-.334.2066-.595.2066h-8.149c-.239 0-.427-.0661-.563-.1983-.135-.1322-.203-.3141-.203-.5455 0-.1763.04-.3223.122-.438.081-.1157.193-.2231.334-.3223l.375-.1488c.141-.0661.239-.1708.293-.314.055-.1433.082-.3802.082-.7108v-8.3966c0-.2645-.03-.4546-.09-.5703-.06-.1157-.16-.2066-.301-.2727l-.424-.0496c-.152-.0882-.264-.1818-.334-.281-.071-.0992-.106-.2259-.106-.3802 0-.1763.054-.3333.163-.471.108-.1378.293-.2562.554-.3554l4.629-1.3389c.271-.1101.499-.1873.684-.2314.185-.044.342-.066.473-.066.185 0 .323.066.415.1983l.03.048c.076.1381.129.3591.158.6627l.124 2.5684.028-.0948c.055-.1789.116-.3505.182-.5149.397-.9862.921-1.719 1.573-2.1984.652-.4793 1.364-.719 2.135-.719.934 0 1.652.314 2.151.9422.5.6281.75 1.5813.75 2.8595 0 1.2672-.261 2.1983-.782 2.7934-.522.595-1.195.8925-2.021.8925-.804 0-1.399-.2038-1.785-.6115-.386-.4077-.589-.9863-.611-1.7356l-.016-.6611c-.011-.2535-.06-.4518-.147-.5951-.087-.1432-.228-.2148-.424-.2148-.195 0-.367.1019-.513.3057-.147.2039-.258.5152-.334.9339-.076.4188-.114.9532-.114 1.6033v5.8182c0 .3086.048.5537.146.7356.098.1818.25.2947.457.3388l1.222.2479c.228.0331.391.1185.489.2562.098.1378.147.3003.147.4876 0 .2204-.068.3995-.204.5372zm13.031.5042c1.619 0 3.039-.3361 4.262-1.0083 1.222-.6722 2.178-1.584 2.868-2.7355.69-1.1516 1.035-2.4546 1.035-3.9091 0-1.5317-.331-2.8816-.994-4.0496-.663-1.1681-1.586-2.0827-2.771-2.7438-1.184-.6612-2.569-.9918-4.156-.9918-1.597 0-3.01.3416-4.238 1.0248-1.227.6832-2.189 1.6061-2.884 2.7686-.696 1.1626-1.043 2.4711-1.043 3.9256 0 1.5207.331 2.8596.994 4.0166.663 1.157 1.589 2.0633 2.779 2.719 1.189.6556 2.572.9835 4.148.9835zm.252-2.1653c.321.3636.65.5124.986.4462.337-.0661.59-.3305.758-.7933.169-.4629.239-1.1488.212-2.0579-.027-.9091-.171-2.0634-.432-3.4628-.261-1.3995-.538-2.5289-.831-3.3884-.293-.8595-.6-1.4711-.921-1.8347-.32-.3637-.649-.5124-.986-.4463-.337.0771-.587.3471-.75.8099-.163.4628-.228 1.146-.195 2.0496.032.9036.174 2.0551.423 3.4545.261 1.3995.536 2.529.824 3.3885.288.8595.592 1.471.912 1.8347zm20.838 2.1983c.913 0 1.663-.168 2.249-.5041.587-.3361 1.024-.7356 1.312-1.1984.288-.4628.432-.887.432-1.2727 0-.1653-.035-.303-.106-.4132-.07-.1102-.165-.1653-.285-.1653-.054 0-.103.011-.147.0331a.3312.3312 0 00-.114.0991c-.054.1984-.138.3361-.252.4132-.114.0772-.237.1157-.367.1157-.185 0-.323-.0633-.416-.19-.092-.1268-.138-.2948-.138-.5042v-7.3057c0-1.4546-.492-2.5813-1.475-3.3802-.984-.799-2.524-1.1984-4.621-1.1984-1.63 0-2.991.2039-4.083.6116-1.092.4077-1.912.9284-2.461 1.562-.548.6336-.823 1.281-.823 1.9421 0 .7053.204 1.2425.611 1.6116.408.3692.997.5537 1.769.5537.945 0 1.689-.2562 2.233-.7686.543-.5124.815-1.1763.815-1.9917v-1.2562c0-.3085.095-.5482.285-.719.19-.1708.426-.2562.709-.2562.304 0 .546.1129.725.3388.179.2259.269.5317.269.9174v4.8182l-.087-.0189c-.262-.0506-.566-.0795-.911-.0868l-.175-.0018c-2.337 0-4.078.3967-5.224 1.1901-1.146.7934-1.72 1.9008-1.72 3.3223 0 1.0799.394 1.967 1.182 2.6612.788.6942 1.834 1.0413 3.137 1.0413.978 0 1.891-.2011 2.739-.6033.635-.3016 1.152-.6978 1.549-1.1885l.023-.0287.024.074c.125.3573.354.6774.688.9603l.103.0837c.603.4684 1.454.7025 2.551.7025zm-5.615-3.1157c.266.3581.617.5372 1.052.5372l.093-.0032c.185-.0129.364-.0646.538-.155l.053-.03v-4.2415l-.081-.0248c-.185-.0496-.402-.0744-.652-.0744-.424 0-.764.1983-1.019.595-.255.3967-.383.9807-.383 1.7521 0 .7383.133 1.2865.399 1.6446zM174.212 25c1.934 0 3.417-.4463 4.449-1.3388 1.033-.8926 1.549-2.1102 1.549-3.6529 0-.9367-.174-1.7576-.522-2.4628-.348-.7053-.956-1.3306-1.825-1.8761-.87-.5454-2.092-1.0606-3.668-1.5454-.586-.1874-1.04-.3774-1.361-.5703-.32-.1928-.54-.3994-.66-.6198a1.4735 1.4735 0 01-.179-.7108c0-.3746.136-.6776.408-.9091.271-.2314.673-.3471 1.206-.3471.739 0 1.437.248 2.094.7438.657.4959 1.383 1.3444 2.176 2.5455.206.2534.413.438.619.5537.207.1157.402.1515.587.1075.228-.0662.369-.2177.424-.4546.054-.2369.043-.5757-.033-1.0165l-.424-3.0413c-.043-.3196-.125-.5455-.244-.6777-.12-.1323-.277-.1984-.473-.1984-.174 0-.391.0606-.652.1818-.26.1213-.519.2452-.774.3719-.255.1268-.448.1901-.578.1901-.12 0-.297-.0661-.53-.1983-.234-.1323-.562-.2645-.986-.3967-.424-.1322-.973-.1984-1.646-.1984-1.12 0-2.127.2039-3.024.6116-.896.4077-1.603.989-2.119 1.7438-.516.7548-.774 1.6557-.774 2.7025 0 .9256.193 1.7355.579 2.4297.386.6943.975 1.2893 1.768 1.7852.793.4958 1.793.898 2.999 1.2066.782.2093 1.383.4215 1.801.6363.418.2149.706.4491.864.7025.158.2535.236.5345.236.843 0 .4077-.136.7438-.407 1.0083-.272.2644-.685.3967-1.239.3967a3.415 3.415 0 01-1.491-.3389c-.473-.2259-.959-.6143-1.459-1.1653-.5-.5509-1.059-1.3058-1.679-2.2644-.184-.2535-.394-.4298-.627-.529-.234-.0991-.47-.0936-.709.0166-.228.0881-.375.2754-.44.5619s-.049.6392.049 1.0579l.505 3.2893c.076.3305.185.5509.326.6611.141.1102.293.1653.456.1653.185 0 .41-.0606.677-.1818l.798-.3637c.266-.1212.481-.1818.644-.1818.163 0 .378.0606.644.1818.266.1213.614.2425 1.043.3637.429.1212.97.1818 1.622.1818zm15.451-.6198c-.717.3801-1.565.5702-2.543.5702-1.651 0-2.893-.4022-3.724-1.2066-.831-.8044-1.247-2.0716-1.247-3.8016v-7.4711c0-.2314-.022-.4077-.065-.529-.043-.1212-.152-.2203-.326-.2975l-.766-.2479c-.185-.0882-.304-.1956-.359-.3223-.054-.1267-.081-.2838-.081-.4711 0-.2314.081-.4215.244-.5702.163-.1488.364-.2232.603-.2232h.799c.098 0 .201-.0386.31-.1157.108-.0771.255-.2314.44-.4628l3.015-2.529c.217-.2644.435-.4655.652-.6032.217-.1378.435-.2066.652-.2066.25 0 .445.0771.587.2314l.044.0547c.112.1545.168.3787.168.6725l-.001 2.9587h3.407c.239 0 .424.0524.554.157.131.1047.196.2673.196.4876 0 .3086-.136.573-.408.7934l-.06.0456c-.274.19-.689.285-1.244.285h-2.445l.001 7.5372c0 .8264.138 1.438.415 1.8347.277.3967.682.5951 1.214.5951.229 0 .441-.0496.636-.1488.196-.0992.372-.2287.53-.3884.157-.1598.307-.3389.448-.5372.141-.1984.277-.3967.408-.5951.108-.044.203-.0248.285.0579.081.0826.117.2507.106.5041-.076.8926-.324 1.6777-.742 2.3554s-.986 1.2066-1.703 1.5868zm10.676.5702c1.379 0 2.596-.27 3.65-.8099 1.054-.54 1.875-1.259 2.462-2.157.586-.8981.88-1.8871.88-2.967 0-.2093-.038-.3581-.114-.4463-.077-.0881-.169-.1322-.278-.1322-.076 0-.165.0248-.268.0744-.104.0496-.22.146-.351.2893-.228.7052-.676 1.2561-1.345 1.6528-.668.3967-1.437.5951-2.306.5951-1.358 0-2.445-.4656-3.26-1.3967-.477-.5458-.815-1.2725-1.013-2.18l-.016-.0762h7.451c.472 0 .841-.1244 1.109-.3732l.065-.0648c.271-.292.407-.6915.407-1.1984 0-1.168-.274-2.2286-.823-3.1818-.549-.9532-1.334-1.708-2.355-2.2645-1.022-.5564-2.238-.8347-3.651-.8347-1.662 0-3.086.3306-4.27.9918-1.185.6611-2.089 1.584-2.714 2.7686-.625 1.1845-.937 2.5647-.937 4.1405 0 1.4986.323 2.8181.97 3.9586.646 1.1405 1.545 2.0276 2.697 2.6612 1.152.6336 2.488.9504 4.01.9504zm-2.152-9.6694c0 .2736.008.5371.023.7907l.002.0357h2.534c.413 0 .619-.2314.619-.6942 0-1.5096-.165-2.5895-.497-3.2396-.331-.6502-.687-.9753-1.067-.9753-.294 0-.56.124-.799.3719-.239.248-.435.6695-.587 1.2645-.152.5951-.228 1.4105-.228 2.4463zm19.102 9.3388c.261 0 .459-.0688.595-.2066.136-.1377.204-.3168.204-.5372 0-.1873-.049-.3498-.147-.4876-.098-.1377-.261-.2231-.489-.2562l-1.222-.2479c-.207-.0441-.359-.157-.457-.3388-.097-.1819-.146-.427-.146-.7356v-5.8182c0-.6501.038-1.1845.114-1.6033.076-.4187.187-.73.334-.9339.147-.2038.318-.3057.513-.3057.196 0 .337.0716.424.2148.087.1433.136.3416.147.5951l.016.6611c.022.7493.225 1.3279.611 1.7356.386.4077.981.6115 1.785.6115.826 0 1.499-.2975 2.021-.8925.522-.5951.782-1.5262.782-2.7934 0-1.2782-.25-2.2314-.749-2.8595-.5-.6281-1.217-.9422-2.152-.9422-.771 0-1.483.2397-2.135.719-.652.4794-1.176 1.2122-1.573 2.1984-.066.1644-.126.336-.182.5149l-.028.0953-.124-2.5689c-.029-.3036-.081-.5246-.158-.6628l-.029-.048c-.093-.1322-.231-.1983-.416-.1983-.13 0-.288.022-.473.0661-.184.0441-.413.1212-.684.2314l-4.629 1.3389c-.261.0992-.446.2176-.554.3554-.109.1377-.163.2947-.163.471 0 .1543.035.281.106.3802.07.0992.182.1928.334.281l.424.0496c.141.0661.241.157.301.2727s.09.3058.09.5703v8.3966c0 .3306-.027.5675-.082.7108-.054.1432-.152.2479-.293.314l-.375.1488c-.141.0992-.253.2066-.334.3223-.082.1157-.122.2617-.122.438 0 .2314.068.4133.203.5455.136.1322.324.1983.563.1983h8.149zm17.163-.9586c-1.033.8925-2.516 1.3388-4.45 1.3388-.652 0-1.192-.0606-1.622-.1818-.429-.1212-.777-.2424-1.043-.3637-.266-.1212-.481-.1818-.644-.1818-.163 0-.377.0606-.643.1818l-.799.3637c-.266.1212-.492.1818-.676.1818-.163 0-.315-.0551-.457-.1653-.141-.1102-.25-.3306-.326-.6611l-.505-3.2893c-.098-.4187-.114-.7714-.049-1.0579.065-.2865.212-.4738.44-.5619.239-.1102.476-.1157.709-.0166.234.0992.443.2755.628.529.619.9586 1.179 1.7135 1.678 2.2644.5.551.987.9394 1.459 1.1653.473.2259.97.3389 1.492.3389.554 0 .967-.1323 1.238-.3967.272-.2645.408-.6006.408-1.0083 0-.3085-.079-.5895-.237-.843-.157-.2534-.445-.4876-.863-.7025-.419-.2148-1.019-.427-1.801-.6363-1.207-.3086-2.206-.7108-2.999-1.2066-.794-.4959-1.383-1.0909-1.769-1.7852-.386-.6942-.578-1.5041-.578-2.4297 0-1.0468.258-1.9477.774-2.7025.516-.7548 1.222-1.3361 2.119-1.7438.896-.4077 1.904-.6116 3.023-.6116.674 0 1.222.0662 1.646.1984.424.1322.753.2645.986.3967.234.1322.41.1983.53.1983.13 0 .323-.0633.579-.1901.255-.1267.513-.2506.774-.3719.26-.1212.478-.1818.652-.1818.195 0 .353.0661.472.1984.12.1322.201.3581.245.6777l.424 3.0413c.076.4408.086.7796.032 1.0165-.054.2369-.195.3884-.424.4546-.184.044-.38.0082-.586-.1075-.207-.1157-.413-.3003-.62-.5537-.793-1.2011-1.518-2.0496-2.176-2.5455-.657-.4958-1.355-.7438-2.094-.7438-.532 0-.934.1157-1.206.3471-.272.2315-.408.5345-.408.9091 0 .2535.06.4904.18.7108.119.2204.339.427.66.6198.32.1929.774.3829 1.361.5703 1.575.4848 2.798 1 3.667 1.5454.869.5455 1.478 1.1708 1.825 1.8761.348.7052.522 1.5261.522 2.4628 0 1.5427-.516 2.7603-1.548 3.6529z" fill="#333D4B"/><path fill-rule="evenodd" clip-rule="evenodd" d="M14.4893 5.0027C10.9749 1.491 5.7655.9857 2.8766 3.8777-.0138 6.7682.4916 11.9778 4.0001 15.4908c.936.9361 2.0144 1.6516 3.153 2.1646.3734-2.1706 1.4444-4.2571 3.0703-5.9701-.5384-.192-1.0904-.354-1.6664-.5115-3.411-.936-5.1059-3.7816-5.5019-7.1176.3275.3938.6257.807.923 1.2188.5769.7992 1.1504 1.5938 1.9284 2.2342 1.2103.9966 2.5387 1.3812 3.992 1.8021l.1689.049c.6885.1994 1.287.495 1.836.84 1.443-1.0546 3.0704-1.7566 4.7504-2.046-.5115-1.1386-1.2285-2.2156-2.1645-3.1516zM8.5465 18.4894c.2235-2.1735 1.2765-4.2991 2.9639-5.9866 3.5144-3.5116 8.7238-4.0186 11.6128-1.125 2.8904 2.8905 2.3864 8.1001-1.1265 11.6132-1.6875 1.6875-3.8129 2.7405-5.9864 2.9655a8.7582 8.7582 0 01-.8565.0435c-1.8689 0-3.5384-.6555-4.7684-1.8855-1.416-1.4145-2.07-3.4126-1.839-5.6251zm5.1404 1.7835c1.1519-.879 2.3984-1.227 3.7544-1.5975 3.4109-.936 5.1044-3.7816 5.5019-7.1176-.3248.3916-.6208.802-.9159 1.211-.5786.8021-1.1538 1.5993-1.9356 2.242-1.2139.9982-2.5454 1.3835-4.0053 1.806l-.1556.0451c-3.3374.969-4.9874 3.7905-5.3684 7.0741.3288-.395.63-.8051.9296-1.2131.6503-.8855 1.2932-1.7609 2.1949-2.45z" fill="#0E8784"/></svg>